<?xml version="1.0" encoding="UTF-8"?>
<svg xmlns="http://www.w3.org/2000/svg" xmlns:xlink="http://www.w3.org/1999/xlink" width="37.5pt" height="37.499999pt" viewBox="0 0 37.5 37.499999" version="1.2">
<defs>
<clipPath id="clip1">
  <path d="M 0 0 L 37.007812 0 L 37.007812 37.007812 L 0 37.007812 Z M 0 0 "/>
</clipPath>
<clipPath id="clip2">
  <path d="M 7.964844 12.582031 L 29.714844 12.582031 L 29.714844 31.210938 L 7.964844 31.210938 Z M 7.964844 12.582031 "/>
</clipPath>
<clipPath id="clip3">
  <path d="M 7.964844 6.476562 L 29.714844 6.476562 L 29.714844 15 L 7.964844 15 Z M 7.964844 6.476562 "/>
</clipPath>
<clipPath id="clip4">
  <path d="M 18.832031 10.445312 L 29.714844 10.445312 L 29.714844 31.210938 L 18.832031 31.210938 Z M 18.832031 10.445312 "/>
</clipPath>
<clipPath id="clip5">
  <path d="M 18.832031 12.582031 L 29.714844 12.582031 L 29.714844 31.210938 L 18.832031 31.210938 Z M 18.832031 12.582031 "/>
</clipPath>
<clipPath id="clip6">
  <path d="M 18 6.476562 L 29.714844 6.476562 L 29.714844 15 L 18 15 Z M 18 6.476562 "/>
</clipPath>
</defs>
<g id="surface1">
<g clip-path="url(#clip1)" clip-rule="nonzero">
<path style=" stroke:none;fill-rule:nonzero;fill:rgb(49.01886%,53.329468%,69.799805%);fill-opacity:1;" d="M 6.199219 37.5 L 31.300781 37.5 C 34.71875 37.5 37.5 34.71875 37.5 31.300781 L 37.5 6.199219 C 37.5 2.78125 34.71875 0 31.300781 0 L 6.199219 0 C 2.78125 0 0 2.78125 0 6.199219 L 0 31.300781 C 0 34.71875 2.78125 37.5 6.199219 37.5 Z M 6.199219 37.5 "/>
</g>
<g clip-path="url(#clip2)" clip-rule="nonzero">
<path style=" stroke:none;fill-rule:nonzero;fill:rgb(100%,100%,100%);fill-opacity:1;" d="M 29.570312 12.65625 L 29.71875 24.972656 L 19.398438 31.097656 C 19.144531 31.246094 18.832031 31.25 18.578125 31.109375 L 8.113281 25.234375 L 7.964844 12.917969 L 11.417969 14.855469 L 11.421875 14.855469 L 11.519531 23.210938 L 18.53125 27.144531 C 18.785156 27.289062 19.097656 27.285156 19.351562 27.132812 L 26.261719 23.03125 L 26.160156 14.601562 L 26.230469 14.640625 L 29.570312 12.65625 "/>
</g>
<g clip-path="url(#clip3)" clip-rule="nonzero">
<path style=" stroke:none;fill-rule:nonzero;fill:rgb(85.099792%,85.099792%,85.099792%);fill-opacity:1;" d="M 7.964844 12.917969 L 18.277344 6.644531 C 18.53125 6.488281 18.851562 6.484375 19.109375 6.636719 L 29.570312 12.65625 L 26.164062 14.679688 L 19.164062 10.601562 C 18.902344 10.449219 18.578125 10.453125 18.320312 10.613281 L 11.421875 14.855469 L 7.964844 12.917969 "/>
</g>
<g clip-path="url(#clip4)" clip-rule="nonzero">
<path style=" stroke:none;fill-rule:nonzero;fill:rgb(100%,100%,100%);fill-opacity:1;" d="M 19.351562 31.121094 C 19.367188 31.113281 19.382812 31.105469 19.398438 31.097656 L 29.71875 24.972656 L 19.398438 31.097656 C 19.382812 31.105469 19.367188 31.113281 19.351562 31.121094 M 18.929688 27.25 C 18.90625 27.25 18.882812 27.25 18.855469 27.246094 C 18.882812 27.25 18.90625 27.25 18.933594 27.25 C 19.078125 27.25 19.222656 27.210938 19.351562 27.132812 C 19.222656 27.210938 19.074219 27.25 18.929688 27.25 M 26.261719 23.03125 L 26.160156 14.679688 L 19.164062 10.601562 L 26.160156 14.679688 L 26.261719 23.03125 "/>
</g>
<g clip-path="url(#clip5)" clip-rule="nonzero">
<path style=" stroke:none;fill-rule:nonzero;fill:rgb(85.099792%,85.099792%,85.099792%);fill-opacity:1;" d="M 18.980469 31.210938 C 18.9375 31.210938 18.898438 31.207031 18.855469 31.203125 L 18.855469 27.246094 C 18.882812 27.25 18.90625 27.25 18.929688 27.25 C 19.074219 27.25 19.222656 27.210938 19.351562 27.132812 L 26.261719 23.03125 L 26.160156 14.679688 L 26.164062 14.679688 L 29.570312 12.65625 L 29.71875 24.972656 L 19.398438 31.097656 C 19.382812 31.105469 19.367188 31.113281 19.351562 31.121094 C 19.234375 31.183594 19.105469 31.210938 18.980469 31.210938 "/>
</g>
<path style=" stroke:none;fill-rule:nonzero;fill:rgb(100%,100%,100%);fill-opacity:1;" d="M 19.160156 10.601562 L 19.160156 10.601562 M 19.160156 10.601562 L 19.160156 10.601562 M 19.15625 10.601562 L 19.15625 10.601562 M 19.15625 10.597656 L 19.15625 10.597656 M 19.15625 10.597656 C 19.0625 10.546875 18.960938 10.511719 18.855469 10.5 C 18.960938 10.511719 19.0625 10.546875 19.15625 10.597656 "/>
<g clip-path="url(#clip6)" clip-rule="nonzero">
<path style=" stroke:none;fill-rule:nonzero;fill:rgb(100%,100%,100%);fill-opacity:1;" d="M 26.164062 14.679688 L 26.160156 14.679688 L 19.164062 10.601562 C 19.160156 10.601562 19.160156 10.601562 19.160156 10.601562 C 19.160156 10.601562 19.160156 10.601562 19.15625 10.601562 C 19.15625 10.601562 19.15625 10.601562 19.15625 10.597656 C 19.0625 10.546875 18.960938 10.511719 18.855469 10.5 L 18.855469 6.539062 C 18.945312 6.558594 19.03125 6.589844 19.109375 6.632812 C 19.109375 6.636719 19.109375 6.636719 19.109375 6.636719 L 29.570312 12.65625 L 26.164062 14.679688 "/>
</g>
</g>
</svg>
